# This file uses centimeters as units for non-parametric coordinates.

mtllib fence_low.mtl
g default
v -0.955524 -0.006918 0.128815
v 1.172617 -0.006918 0.128815
v -0.955524 12.124083 0.128815
v 1.172617 12.124083 0.128815
v -0.955524 12.124083 -0.128815
v 1.172617 12.124083 -0.128815
v -0.955524 -0.006918 -0.128815
v 1.172617 -0.006918 -0.128815
v -0.955524 2.942905 0.128815
v 1.172617 2.942905 0.128815
v 1.172617 2.942905 -0.128815
v -0.955524 2.942905 -0.128815
v -0.955524 6.142334 -0.128815
v 1.172617 6.142334 -0.128815
v 1.172617 6.142334 0.128815
v -0.955524 6.142334 0.128815
v -1.161430 2.942905 0.196589
v 1.378523 2.942905 0.196589
v 1.378523 6.142334 0.196589
v -1.161430 6.142334 0.196589
v -1.161430 6.142334 -0.196589
v 1.378523 6.142334 -0.196589
v 1.378523 2.942905 -0.196589
v -1.161430 2.942905 -0.196589
v -1.772682 -0.020075 0.998977
v 1.990486 -0.020075 0.998977
v -1.772682 -0.020075 -0.998977
v 1.990486 -0.020075 -0.998977
v -1.772682 1.403664 0.998977
v -1.473018 1.703327 0.699314
v 1.690823 1.703327 0.699314
v 1.990486 1.403664 0.998977
v -1.473018 1.703327 -0.699314
v -1.772682 1.403664 -0.998977
v 1.690823 1.703327 -0.699314
v 1.990486 1.403664 -0.998977
v 1.990486 0.433095 0.998977
v -1.772682 0.433095 0.998977
v -1.772682 0.433095 -0.998977
v 1.990486 0.433095 -0.998977
v -1.862720 -0.020075 1.140450
v 2.080524 -0.020075 1.140450
v 2.080524 0.433095 1.140450
v -1.862720 0.433095 1.140450
v -1.862720 0.433095 -1.140450
v 2.080524 0.433095 -1.140450
v 2.080524 -0.020075 -1.140450
v -1.862720 -0.020075 -1.140450
v -0.669117 -0.006918 0.500000
v 0.886209 -0.006918 0.500000
v -0.669117 12.352903 0.500000
v 0.886209 12.352903 0.500000
v -0.669117 12.352903 -0.500000
v 0.886209 12.352903 -0.500000
v -0.669117 -0.006918 -0.500000
v 0.886209 -0.006918 -0.500000
v -0.669117 12.563470 0.020657
v 0.886209 12.563470 0.020657
v 0.886209 -0.006918 0.020657
v -0.669117 -0.006918 0.020657
v -0.410613 0.920081 0.500000
v 0.627705 0.920081 0.500000
v 0.627705 11.425905 0.500000
v -0.410613 11.425905 0.500000
v -0.410613 11.425905 -0.500000
v 0.627705 11.425905 -0.500000
v 0.627705 0.920081 -0.500000
v -0.410613 0.920081 -0.500000
v -0.410613 0.920081 0.616738
v 0.627705 0.920081 0.616738
v 0.627705 11.425905 0.616738
v -0.410613 11.425905 0.616738
v -0.410613 11.425905 -0.616738
v 0.627705 11.425905 -0.616738
v 0.627705 0.920081 -0.616738
v -0.410613 0.920081 -0.616738
vt 0.034995 0.000000
vt 0.149560 0.000000
vt 0.036814 0.696528
vt 0.157572 0.696528
vt 0.581582 1.000000
vt 0.172030 0.696528
vt 0.579651 0.304821
vt 0.166683 0.000000
vt 0.030144 0.169943
vt 0.156177 0.168520
vt 0.459043 0.471996
vt 0.018087 0.163677
vt 0.581582 0.660998
vt 0.170140 0.361925
vt 0.155681 0.356987
vt 0.031278 0.358650
vt 0.019489 0.174011
vt 0.166936 0.172659
vt 0.166412 0.352836
vt 0.020507 0.354474
vt 0.000008 0.362316
vt 0.186010 0.358704
vt 0.187307 0.164328
vt 0.000000 0.167513
vt 0.194666 0.525776
vt 0.194666 0.308539
vt 0.308378 0.308539
vt 0.308378 0.525776
vt 0.275865 0.096316
vt 0.299926 0.113238
vt 0.300129 0.192501
vt 0.283207 0.216562
vt 0.496150 0.088718
vt 0.479229 0.112778
vt 0.503492 0.208963
vt 0.479432 0.192042
vt 0.190055 0.088519
vt 0.314354 0.305280
vt 0.563289 0.087562
vt 0.215737 0.088453
vt 0.216068 0.217717
vt 0.563620 0.216827
vt 0.589302 0.216761
vt 0.188689 0.529035
vt 0.220860 0.096457
vt 0.496009 0.033713
vt 0.283348 0.271567
vt 0.558497 0.208822
vt 0.638374 0.055895
vt 0.696792 0.055182
vt 0.701835 0.650028
vt 0.644982 0.649434
vt 0.751092 0.020509
vt 0.750085 0.719073
vt 0.877818 0.032439
vt 0.780897 0.032210
vt 0.800988 0.090270
vt 0.857891 0.090001
vt 0.859383 0.684078
vt 0.801124 0.684121
vt 0.784100 0.739121
vt 0.880390 0.737208
vt 0.744580 0.001247
vt 0.750555 0.737632
vt 0.625616 0.707750
vt 0.722544 0.707309
vt 0.713729 0.000874
vt 0.616915 0.003735
vt 0.702740 0.052786
vt 0.632222 0.054105
vt 0.707731 0.652146
vt 0.639221 0.651942
vt 0.863632 0.087467
vt 0.795080 0.088193
vt 0.865451 0.686081
vt 0.795134 0.686420
vt 0.592494 0.657157
vt 0.591702 0.475836
vt 0.579651 0.471996
vt 0.448548 0.657157
vt 0.447756 0.475836
vt 0.166683 0.159972
vt 0.460975 0.660998
vt 0.017791 0.366332
vt 0.460975 1.000000
vt 0.036814 0.710675
vt 0.589492 0.004107
vt 0.781912 0.000000
vt 0.626763 0.737436
vt 0.598295 0.719520
vt 0.721050 0.737562
vt 0.876336 0.000366
vt 0.907587 0.020576
vt 0.910177 0.736713
vt 0.018087 0.000000
vt 0.459043 0.304821
vt 0.717137 0.000874
vt 0.620355 0.000000
vt 0.780341 0.737850
vt 0.878373 0.739424
vt 0.278332 0.305280
vt 0.316210 0.525776
vt 0.186833 0.308539
vt 0.501025 0.000000
vt 0.186833 0.525776
vt 0.190386 0.217783
vt 0.278266 0.279597
vt 0.501740 0.279025
vt 0.501806 0.304707
vt 0.188133 0.305280
vt 0.496617 0.271020
vt 0.221150 0.209687
vt 0.277617 0.026255
vt 0.277551 0.000572
vt 0.314910 0.529035
vt 0.282740 0.034259
vt 0.316210 0.308539
vt 0.588971 0.087497
vt 0.501091 0.025682
vt 0.558207 0.095593
vt 0.276155 0.209546
vt 0.503202 0.095734
vt 0.496476 0.216016
vt 0.282881 0.089264
vt 0.157572 0.710675
vt 0.021971 0.696528
vn 0.000000 0.000000 1.000000
vn 0.000000 0.000000 1.000000
vn 0.000000 0.000000 1.000000
vn 0.000000 0.000000 1.000000
vn 0.000000 1.000000 0.000000
vn 0.000000 1.000000 0.000000
vn 0.000000 1.000000 0.000000
vn 0.000000 1.000000 0.000000
vn 0.000000 0.000000 -1.000000
vn 0.000000 0.000000 -1.000000
vn 0.000000 0.000000 -1.000000
vn 0.000000 0.000000 -1.000000
vn 1.000000 0.000000 0.000000
vn 1.000000 0.000000 0.000000
vn 1.000000 0.000000 0.000000
vn 1.000000 0.000000 0.000000
vn -1.000000 0.000000 0.000000
vn -1.000000 0.000000 0.000000
vn -1.000000 0.000000 0.000000
vn -1.000000 0.000000 0.000000
vn 0.000000 0.000000 1.000000
vn 0.000000 0.000000 1.000000
vn 0.000000 0.000000 1.000000
vn 0.000000 0.000000 1.000000
vn 1.000000 0.000000 0.000000
vn 1.000000 0.000000 0.000000
vn 1.000000 0.000000 0.000000
vn 1.000000 0.000000 0.000000
vn 0.000000 0.000000 -1.000000
vn 0.000000 0.000000 -1.000000
vn 0.000000 0.000000 -1.000000
vn 0.000000 0.000000 -1.000000
vn -1.000000 0.000000 0.000000
vn -1.000000 0.000000 0.000000
vn -1.000000 0.000000 0.000000
vn -1.000000 0.000000 0.000000
vn 0.000000 0.000000 -1.000000
vn 0.000000 0.000000 -1.000000
vn 0.000000 0.000000 -1.000000
vn 0.000000 0.000000 -1.000000
vn 1.000000 0.000000 0.000000
vn 1.000000 0.000000 0.000000
vn 1.000000 0.000000 0.000000
vn 1.000000 0.000000 0.000000
vn 0.000000 0.000000 1.000000
vn 0.000000 0.000000 1.000000
vn 0.000000 0.000000 1.000000
vn 0.000000 0.000000 1.000000
vn -1.000000 0.000000 0.000000
vn -1.000000 0.000000 0.000000
vn -1.000000 0.000000 0.000000
vn -1.000000 0.000000 0.000000
vn 0.000000 -1.000000 -0.000002
vn 0.000000 -1.000000 -0.000002
vn 0.000000 -1.000000 -0.000002
vn 0.000000 -1.000000 -0.000002
vn 0.000000 1.000000 0.000000
vn 0.000000 1.000000 0.000000
vn 0.000000 1.000000 0.000000
vn 0.000000 1.000000 0.000000
vn 0.000000 1.000000 -0.000001
vn 0.000000 1.000000 -0.000001
vn 0.000000 1.000000 -0.000001
vn 0.000000 1.000000 -0.000001
vn 0.000000 -1.000000 0.000004
vn 0.000000 -1.000000 0.000004
vn 0.000000 -1.000000 0.000004
vn 0.000000 -1.000000 0.000004
vn 0.000000 -1.000000 0.000000
vn 0.000000 -1.000000 0.000000
vn 0.000000 -1.000000 0.000000
vn 0.000000 -1.000000 0.000000
vn 0.000000 1.000000 0.000000
vn 0.000000 1.000000 0.000000
vn 0.000000 1.000000 0.000000
vn 0.000000 1.000000 0.000000
vn 0.000000 -1.000000 0.000000
vn 0.000000 -1.000000 0.000000
vn 0.000000 -1.000000 0.000000
vn 0.000000 -1.000000 0.000000
vn 0.000000 1.000000 0.000000
vn 0.000000 1.000000 0.000000
vn 0.000000 1.000000 0.000000
vn 0.000000 1.000000 0.000000
vn 0.000000 -1.000000 0.000000
vn 0.000000 -1.000000 0.000000
vn 0.000000 -1.000000 0.000000
vn 0.000000 -1.000000 0.000000
vn -0.707106 0.707108 0.000000
vn -0.707106 0.707108 0.000000
vn -0.707106 0.707108 0.000000
vn -0.707106 0.707108 0.000000
vn 0.000000 0.707107 0.707107
vn 0.000000 0.707107 0.707107
vn 0.000000 0.707107 0.707107
vn 0.000000 0.707107 0.707107
vn 0.707107 0.707107 0.000000
vn 0.707107 0.707107 0.000000
vn 0.707107 0.707107 0.000000
vn 0.707107 0.707107 0.000000
vn 0.000000 0.707107 -0.707107
vn 0.000000 0.707107 -0.707107
vn 0.000000 0.707107 -0.707107
vn 0.000000 0.707107 -0.707107
vn 0.000000 0.000000 1.000000
vn 0.000000 0.000000 1.000000
vn 0.000000 0.000000 1.000000
vn 0.000000 0.000000 1.000000
vn 0.000000 1.000000 0.000000
vn 0.000000 1.000000 0.000000
vn 0.000000 1.000000 0.000000
vn 0.000000 1.000000 0.000000
vn -0.000000 0.000000 -1.000000
vn -0.000000 0.000000 -1.000000
vn -0.000000 0.000000 -1.000000
vn -0.000000 0.000000 -1.000000
vn 1.000000 0.000000 0.000000
vn 1.000000 0.000000 0.000000
vn 1.000000 0.000000 0.000000
vn 1.000000 0.000000 0.000000
vn -1.000000 0.000000 0.000000
vn -1.000000 0.000000 0.000000
vn -1.000000 0.000000 0.000000
vn -1.000000 0.000000 0.000000
vn -0.000000 0.000000 1.000000
vn -0.000000 0.000000 1.000000
vn -0.000000 0.000000 1.000000
vn -0.000000 0.000000 1.000000
vn -1.000000 0.000000 0.000000
vn -1.000000 0.000000 0.000000
vn -1.000000 0.000000 0.000000
vn -1.000000 0.000000 0.000000
vn 0.000000 0.000000 -1.000000
vn 0.000000 0.000000 -1.000000
vn 0.000000 0.000000 -1.000000
vn 0.000000 0.000000 -1.000000
vn 1.000000 0.000000 0.000000
vn 1.000000 0.000000 0.000000
vn 1.000000 0.000000 0.000000
vn 1.000000 0.000000 0.000000
vn 0.000000 -1.000000 -0.000000
vn 0.000000 -1.000000 -0.000000
vn 0.000000 -1.000000 -0.000000
vn 0.000000 -1.000000 -0.000000
vn 0.000000 1.000000 0.000000
vn 0.000000 1.000000 0.000000
vn 0.000000 1.000000 0.000000
vn 0.000000 1.000000 0.000000
vn -0.000000 1.000000 -0.000000
vn -0.000000 1.000000 -0.000000
vn -0.000000 1.000000 -0.000000
vn -0.000000 1.000000 -0.000000
vn 0.000000 -1.000000 0.000000
vn 0.000000 -1.000000 0.000000
vn 0.000000 -1.000000 0.000000
vn 0.000000 -1.000000 0.000000
vn 0.000000 -1.000000 0.000000
vn 0.000000 -1.000000 0.000000
vn 0.000000 -1.000000 0.000000
vn 0.000000 -1.000000 0.000000
vn 0.000000 1.000000 0.000000
vn 0.000000 1.000000 0.000000
vn 0.000000 1.000000 0.000000
vn 0.000000 1.000000 0.000000
vn 0.000000 -1.000000 0.000000
vn 0.000000 -1.000000 0.000000
vn 0.000000 -1.000000 0.000000
vn 0.000000 -1.000000 0.000000
vn 0.000000 1.000000 -0.000000
vn 0.000000 1.000000 -0.000000
vn 0.000000 1.000000 -0.000000
vn 0.000000 1.000000 -0.000000
vn 0.000000 0.000000 1.000000
vn 0.000000 0.000000 1.000000
vn 0.000000 0.000000 1.000000
vn 0.000000 0.000000 1.000000
vn 0.000000 1.000000 0.000000
vn 0.000000 1.000000 0.000000
vn 0.000000 0.927056 -0.374924
vn 0.000000 0.927056 -0.374924
vn 0.000000 0.000000 -1.000000
vn 0.000000 0.000000 -1.000000
vn 0.000000 0.000000 -1.000000
vn 0.000000 0.000000 -1.000000
vn 1.000000 0.000000 0.000000
vn 1.000000 0.000000 0.000000
vn 1.000000 0.000000 0.000000
vn 1.000000 0.000000 0.000000
vn -1.000000 0.000000 0.000000
vn -1.000000 0.000000 0.000000
vn -1.000000 0.000000 0.000000
vn -1.000000 0.000000 0.000000
vn 0.000000 0.915558 0.402187
vn 0.000000 0.915558 0.402187
vn 1.000000 0.000000 0.000000
vn 1.000000 0.000000 0.000000
vn -1.000000 0.000000 0.000000
vn -1.000000 0.000000 0.000000
vn 0.000000 0.000000 1.000000
vn 0.000000 0.000000 1.000000
vn 0.000000 0.000000 1.000000
vn 0.000000 0.000000 1.000000
vn 0.000000 0.000000 1.000000
vn 0.000000 0.000000 1.000000
vn 0.000000 0.000000 1.000000
vn 0.000000 0.000000 1.000000
vn 0.000000 0.000000 1.000000
vn 0.000000 0.000000 1.000000
vn 0.000000 0.000000 1.000000
vn 0.000000 0.000000 1.000000
vn 0.000000 0.000000 1.000000
vn 0.000000 0.000000 1.000000
vn 0.000000 0.000000 1.000000
vn 0.000000 0.000000 1.000000
vn 0.000000 0.000000 -1.000000
vn 0.000000 0.000000 -1.000000
vn 0.000000 0.000000 -1.000000
vn 0.000000 0.000000 -1.000000
vn 0.000000 0.000000 -1.000000
vn 0.000000 0.000000 -1.000000
vn 0.000000 0.000000 -1.000000
vn 0.000000 0.000000 -1.000000
vn 0.000000 0.000000 -1.000000
vn 0.000000 0.000000 -1.000000
vn 0.000000 0.000000 -1.000000
vn 0.000000 0.000000 -1.000000
vn 0.000000 0.000000 -1.000000
vn 0.000000 0.000000 -1.000000
vn 0.000000 0.000000 -1.000000
vn 0.000000 0.000000 -1.000000
vn 0.000000 -1.000000 0.000000
vn 0.000000 -1.000000 0.000000
vn 0.000000 -1.000000 0.000000
vn 0.000000 -1.000000 0.000000
vn 1.000000 0.000000 0.000000
vn 1.000000 0.000000 0.000000
vn 1.000000 0.000000 0.000000
vn 1.000000 0.000000 0.000000
vn 0.000000 1.000000 0.000000
vn 0.000000 1.000000 0.000000
vn 0.000000 1.000000 0.000000
vn 0.000000 1.000000 0.000000
vn -1.000000 0.000000 0.000000
vn -1.000000 0.000000 0.000000
vn -1.000000 0.000000 0.000000
vn -1.000000 0.000000 0.000000
vn 0.000000 1.000000 0.000000
vn 0.000000 1.000000 0.000000
vn 0.000000 1.000000 0.000000
vn 0.000000 1.000000 0.000000
vn 1.000000 0.000000 0.000000
vn 1.000000 0.000000 0.000000
vn 1.000000 0.000000 0.000000
vn 1.000000 0.000000 0.000000
vn 0.000000 -1.000000 0.000000
vn 0.000000 -1.000000 0.000000
vn 0.000000 -1.000000 0.000000
vn 0.000000 -1.000000 0.000000
vn -1.000000 0.000000 0.000000
vn -1.000000 0.000000 0.000000
vn -1.000000 0.000000 0.000000
vn -1.000000 0.000000 0.000000
s off
g Fence_low
usemtl initialShadingGroup
f 17/17/1 18/18/2 19/19/3 20/20/4
f 3/3/5 4/4/6 6/125/7 5/86/8
f 21/77/9 22/80/10 23/81/11 24/78/12
f 18/18/13 23/23/14 22/22/15 19/19/16
f 24/24/17 17/17/18 20/20/19 21/21/20
f 1/1/21 2/2/22 10/10/23 9/9/24
f 2/2/25 8/8/26 11/82/27 10/10/28
f 12/79/29 11/11/30 8/96/31 7/7/32
f 7/95/33 1/1/34 9/9/35 12/12/36
f 5/5/37 6/85/38 14/83/39 13/13/40
f 15/15/41 14/14/42 6/6/43 4/4/44
f 16/16/45 15/15/46 4/4/47 3/3/48
f 13/84/49 16/16/50 3/3/51 5/126/52
f 9/9/53 10/10/54 18/18/55 17/17/56
f 15/15/57 16/16/58 20/20/59 19/19/60
f 13/13/61 14/83/62 22/80/63 21/77/64
f 11/11/65 12/79/66 24/78/67 23/81/68
f 10/10/69 11/82/70 23/23/71 18/18/72
f 14/14/73 15/15/74 19/19/75 22/22/76
f 12/12/77 9/9/78 17/17/79 24/24/80
f 16/16/81 13/84/82 21/21/83 20/20/84
f 27/25/85 28/26/86 26/27/87 25/28/88
f 29/29/89 30/30/90 33/31/91 34/121/92
f 30/30/93 29/124/94 32/33/95 31/34/96
f 31/34/97 32/122/98 36/35/99 35/36/100
f 34/32/101 33/31/102 35/36/103 36/123/104
f 41/114/105 42/104/106 43/119/107 44/113/108
f 30/30/109 31/34/110 35/36/111 33/31/112
f 45/107/113 46/108/114 47/109/115 48/101/116
f 42/118/117 47/43/118 46/42/119 43/39/120
f 48/106/121 41/37/122 44/40/123 45/41/124
f 38/116/125 37/46/126 32/33/127 29/124/128
f 39/112/129 38/45/130 29/29/131 34/121/132
f 34/32/133 36/123/134 40/111/135 39/47/136
f 37/120/137 40/48/138 36/35/139 32/122/140
f 25/28/141 26/27/142 42/117/143 41/102/144
f 37/46/145 38/116/146 44/113/147 43/119/148
f 39/47/149 40/111/150 46/108/151 45/107/152
f 28/26/153 27/25/154 48/105/155 47/103/156
f 26/27/157 28/26/158 47/110/159 42/38/160
f 40/48/161 37/120/162 43/39/163 46/42/164
f 27/25/165 25/28/166 41/115/167 48/44/168
f 38/45/169 39/112/170 45/41/171 44/40/172
f 69/49/173 70/50/174 71/51/175 72/52/176
s 1
f 57/88/177 58/92/178 54/55/179 53/56/180
s off
f 73/57/181 74/58/182 75/59/183 76/60/184
s 2
f 58/93/185 59/94/186 56/62/187 54/55/188
s 3
f 55/99/189 60/64/190 57/53/191 53/56/192
s 1
f 51/65/193 52/66/194 58/91/178 57/89/177
s 2
f 50/97/195 59/63/186 58/54/185 52/66/196
s 3
f 57/90/191 60/87/190 49/68/197 51/65/198
s off
f 49/98/199 50/67/200 62/69/201 61/70/202
f 50/97/203 52/66/204 63/71/205 62/69/206
f 52/66/207 51/65/208 64/72/209 63/71/210
f 51/65/211 49/68/212 61/70/213 64/72/214
f 53/56/215 54/55/216 66/73/217 65/74/218
f 54/55/219 56/62/220 67/75/221 66/73/222
f 56/100/223 55/61/224 68/76/225 67/75/226
f 55/99/227 53/56/228 65/74/229 68/76/230
f 61/70/231 62/69/232 70/50/233 69/49/234
f 62/69/235 63/71/236 71/51/237 70/50/238
f 63/71/239 64/72/240 72/52/241 71/51/242
f 64/72/243 61/70/244 69/49/245 72/52/246
f 65/74/247 66/73/248 74/58/249 73/57/250
f 66/73/251 67/75/252 75/59/253 74/58/254
f 67/75/255 68/76/256 76/60/257 75/59/258
f 68/76/259 65/74/260 73/57/261 76/60/262
