# This file uses centimeters as units for non-parametric coordinates.

mtllib Hålvägg_low.mtl
g default
v -7.474476 5.430524 -0.478964
v -5.430525 7.474476 -0.478964
v -5.430525 7.474476 0.478964
v -7.474476 5.430524 0.478964
v 8.786771 -2.854995 -0.478964
v 7.474473 -5.430523 -0.478964
v 7.474473 -5.430523 0.478964
v 8.786771 -2.854995 0.478964
v -2.854996 8.786775 -0.478964
v -2.854996 8.786775 0.478964
v 9.238957 0.000000 -0.478964
v 9.238957 -0.000000 0.478964
v 0.000000 9.238962 -0.478964
v 0.000000 9.238962 0.478964
v 8.786777 2.854997 -0.478964
v 8.786777 2.854997 0.478964
v 2.854996 8.786776 -0.478964
v 2.854996 8.786776 0.478964
v -10.658515 10.658515 0.478964
v 10.658515 10.658515 0.478964
v 10.658515 10.658515 -0.478964
v -10.658515 10.658515 -0.478964
v 10.658515 -10.658515 0.478964
v 10.658515 -10.658515 -0.478964
v 5.430526 7.474478 -0.478964
v 5.430526 7.474478 0.478964
v 7.474479 5.430526 -0.478964
v 7.474479 5.430526 0.478964
v -10.658515 -10.658515 -0.478964
v -0.000000 -9.238958 -0.478964
v 2.854995 -8.786772 -0.478964
v 5.430523 -7.474474 -0.478964
v 5.430523 -7.474474 0.478964
v 2.854995 -8.786772 0.478964
v -0.000000 -9.238958 0.478964
v -10.658515 -10.658515 0.478964
v -8.786773 2.854995 -0.478964
v -8.786773 2.854995 0.478964
v -9.238959 0.000000 -0.478964
v -9.238959 -0.000000 0.478964
v -2.854995 -8.786772 -0.478964
v -2.854995 -8.786772 0.478964
v -8.786773 -2.854995 -0.478964
v -8.786773 -2.854995 0.478964
v -5.430524 -7.474475 -0.478964
v -5.430524 -7.474475 0.478964
v -7.474475 -5.430524 -0.478964
v -7.474475 -5.430524 0.478964
vt 0.158172 0.252829
vt 0.251902 0.158971
vt 0.751432 0.159553
vt 0.844913 0.253591
vt 0.904630 0.632530
vt 0.844491 0.750757
vt 0.157697 0.749766
vt 0.097852 0.631443
vt 0.370047 0.098672
vt 0.633467 0.099004
vt 0.925291 0.501505
vt 0.077498 0.500418
vt 0.501044 0.077833
vt 0.502565 0.077871
vt 0.904452 0.370508
vt 0.098630 0.369517
vt 0.632069 0.098494
vt 0.371540 0.098225
vt 0.991684 0.014208
vt 0.013835 0.011300
vt 0.990100 0.012360
vt 0.011899 0.013025
vt 0.010927 0.989149
vt 0.990764 0.990561
vt 0.750296 0.158633
vt 0.253217 0.158071
vt 0.844153 0.252363
vt 0.159179 0.251552
vt 0.012563 0.991225
vt 0.501620 0.925752
vt 0.632616 0.904913
vt 0.750762 0.844614
vt 0.251178 0.843805
vt 0.369143 0.904354
vt 0.500044 0.925486
vt 0.988776 0.992057
vt 0.098033 0.371056
vt 0.904759 0.371914
vt 0.077372 0.502081
vt 0.925112 0.502939
vt 0.370595 0.905091
vt 0.631070 0.905133
vt 0.098211 0.633078
vt 0.903980 0.633842
vt 0.252368 0.844952
vt 0.749393 0.845286
vt 0.158511 0.751223
vt 0.843431 0.751806
vt 0.647776 0.618975
vt 0.723966 0.618975
vt 0.723966 0.644224
vt 0.647776 0.644224
vt 0.571586 0.618974
vt 0.571586 0.644224
vt 0.800157 0.618975
vt 0.800157 0.644224
vt 0.495396 0.618975
vt 0.495396 0.644224
vt 0.876347 0.618974
vt 0.130210 0.682732
vt 0.419206 0.618975
vt 0.419206 0.644224
vt 0.343016 0.618975
vt 0.343016 0.644224
vt 0.203768 0.658355
vt 0.277327 0.658355
vt 0.350886 0.658355
vt 0.277327 0.682732
vt 0.350886 0.682732
vt 0.203768 0.682732
vt 0.645121 0.658355
vt 0.718679 0.658355
vt 0.718679 0.682732
vt 0.645121 0.682732
vt 0.571562 0.658355
vt 0.571562 0.682732
vt 0.792238 0.658355
vt 0.792238 0.682732
vt 0.865797 0.658355
vt 0.114445 0.644224
vt 0.498003 0.658355
vt 0.498003 0.682732
vt 0.190635 0.618975
vt 0.190635 0.644224
vt 0.424444 0.658355
vt 0.424444 0.682732
vt 0.266826 0.618975
vt 0.266826 0.644224
vt 0.500937 0.548362
vt 0.100646 0.548171
vt 0.118443 0.597767
vt 0.500946 0.530375
vt 0.500254 0.597767
vt 0.500254 0.580609
vt 0.901237 0.530566
vt 0.882066 0.580609
vt 0.882066 0.597767
vt 0.901228 0.548554
vt 0.865797 0.682732
vt 0.114445 0.618975
vt 0.118443 0.580609
vt 0.100654 0.530183
vt 0.876347 0.644224
vt 0.130210 0.658355
vn 0.809017 -0.587785 0.000000
vn 0.587785 -0.809017 0.000000
vn 0.587785 -0.809017 0.000000
vn 0.809017 -0.587785 0.000000
vn -0.951057 0.309017 0.000000
vn -0.809017 0.587785 0.000000
vn -0.809017 0.587785 0.000000
vn -0.951057 0.309017 0.000000
vn 0.309017 -0.951056 0.000000
vn 0.309017 -0.951056 0.000000
vn -1.000000 0.000001 0.000000
vn -1.000000 0.000001 0.000000
vn 0.000000 -1.000000 0.000000
vn 0.000000 -1.000000 0.000000
vn -0.951057 -0.309016 0.000000
vn -0.951057 -0.309016 0.000000
vn -0.309017 -0.951057 0.000000
vn -0.309017 -0.951057 0.000000
vn 0.000000 1.000000 0.000000
vn 0.000000 1.000000 0.000000
vn 0.000000 1.000000 0.000000
vn 0.000000 1.000000 0.000000
vn 1.000000 0.000000 0.000000
vn 1.000000 0.000000 0.000000
vn 1.000000 0.000000 0.000000
vn 1.000000 0.000000 0.000000
vn -0.587785 -0.809017 0.000000
vn -0.587785 -0.809017 0.000000
vn -0.809017 -0.587785 0.000000
vn -0.809017 -0.587785 0.000000
vn -0.000000 0.000000 -1.000000
vn -0.000000 0.000000 -1.000000
vn 0.000000 0.000000 -1.000000
vn 0.000000 0.000000 1.000000
vn 0.000000 0.000000 1.000000
vn 0.000000 0.000000 1.000000
vn -0.587785 0.809017 0.000000
vn -0.587785 0.809017 0.000000
vn -0.309017 0.951057 0.000000
vn -0.309017 0.951057 0.000000
vn 0.951057 -0.309017 0.000000
vn 0.951057 -0.309017 0.000000
vn 0.000000 1.000000 0.000000
vn 0.000000 1.000000 0.000000
vn 1.000000 0.000000 0.000000
vn 1.000000 0.000000 0.000000
vn 0.309017 0.951057 0.000000
vn 0.309017 0.951057 0.000000
vn 0.951057 0.309017 0.000000
vn 0.951057 0.309017 0.000000
vn -1.000000 0.000000 0.000000
vn -1.000000 0.000000 0.000000
vn -1.000000 0.000000 0.000000
vn -1.000000 0.000000 0.000000
vn 0.000000 -1.000000 0.000000
vn 0.000000 -1.000000 0.000000
vn 0.000000 -1.000000 0.000000
vn 0.000000 -1.000000 0.000000
vn 0.587785 0.809017 0.000000
vn 0.587785 0.809017 0.000000
vn 0.809017 0.587785 0.000000
vn 0.809017 0.587785 0.000000
vn 0.000000 0.000000 1.000000
vn 0.000000 0.000000 1.000000
vn 0.000000 0.000000 1.000000
vn 0.000000 0.000000 -1.000000
vn -0.000000 0.000000 -1.000000
vn 0.000000 0.000000 -1.000000
vn 0.000000 0.000000 -1.000000
vn -0.000000 0.000000 -1.000000
vn 0.000000 0.000000 -1.000000
vn 0.000000 0.000000 -1.000000
vn -0.000000 0.000000 -1.000000
vn -0.000000 0.000000 -1.000000
vn -0.000000 0.000000 -1.000000
vn -0.000000 0.000000 -1.000000
vn 0.000000 0.000000 -1.000000
vn -0.000000 0.000000 -1.000000
vn -0.000000 0.000000 -1.000000
vn -0.000000 0.000000 -1.000000
vn 0.000000 0.000000 -1.000000
vn -0.000000 0.000000 -1.000000
vn 0.000000 0.000000 -1.000000
vn 0.000000 0.000000 -1.000000
vn 0.000000 0.000000 -1.000000
vn -0.000000 0.000000 -1.000000
vn -0.000000 0.000000 1.000000
vn 0.000000 0.000000 1.000000
vn 0.000000 0.000000 1.000000
vn 0.000000 0.000000 1.000000
vn 0.000000 0.000000 1.000000
vn 0.000000 0.000000 1.000000
vn 0.000000 0.000000 1.000000
vn 0.000000 0.000000 1.000000
vn 0.000000 0.000000 1.000000
vn -0.000000 0.000000 1.000000
vn 0.000000 0.000000 1.000000
vn 0.000000 0.000000 1.000000
vn -0.000000 0.000000 1.000000
vn -0.000000 0.000000 1.000000
vn 0.000000 0.000000 1.000000
vn 0.000000 0.000000 1.000000
vn 0.000000 0.000000 1.000000
vn 0.000000 0.000000 1.000000
s 1
g Hålvägg_low
usemtl initialShadingGroup
f 1/64/1 2/88/2 3/87/3 4/63/4
f 5/86/5 6/69/6 7/67/7 8/85/8
f 2/88/2 9/84/9 10/83/10 3/87/3
f 11/82/11 5/86/5 8/85/8 12/81/12
f 9/84/9 13/80/13 14/100/14 10/83/10
f 15/76/15 11/82/11 12/81/12 16/75/16
f 13/99/13 17/78/17 18/77/18 14/79/14
s off
f 19/92/19 20/95/20 21/98/21 22/89/22
f 23/93/23 24/94/24 21/96/25 20/97/26
s 1
f 17/78/17 25/73/27 26/72/28 18/77/18
f 27/74/29 15/76/15 16/75/16 28/71/30
f 25/73/27 27/74/29 28/71/30 26/72/28
s 3
f 6/6/31 24/24/32 32/32/33
s 4
f 14/14/34 18/18/35 20/20/36
s 1
f 6/69/6 32/68/37 33/66/38 7/67/7
f 32/68/37 31/70/39 34/65/40 33/66/38
f 37/62/41 1/64/1 4/63/4 38/61/42
f 31/70/39 30/60/43 35/104/44 34/65/40
f 39/58/45 37/62/41 38/61/42 40/57/46
f 30/103/43 41/56/47 42/55/48 35/59/44
f 43/54/49 39/58/45 40/57/46 44/53/50
s off
f 29/90/51 36/102/52 19/92/53 22/89/54
f 29/101/55 24/94/56 23/93/57 36/91/58
s 1
f 41/56/47 45/51/59 46/50/60 42/55/48
f 47/52/61 43/54/49 44/53/50 48/49/62
f 45/51/59 47/52/61 48/49/62 46/50/60
s 4
f 19/19/63 38/38/64 4/4/65
s 3
f 22/22/66 21/21/67 13/13/68
f 30/30/69 24/24/32 29/29/70
f 32/32/33 24/24/32 31/31/71
f 31/31/71 24/24/32 30/30/69
f 29/29/70 41/41/72 30/30/69
f 29/29/70 45/45/73 41/41/72
f 5/5/74 24/24/32 6/6/31
f 11/11/75 24/24/32 5/5/74
f 21/21/67 11/11/75 15/15/76
f 21/21/67 24/24/32 11/11/75
f 21/21/67 15/15/76 27/27/77
f 21/21/67 27/27/77 25/25/78
f 21/21/67 25/25/78 17/17/79
f 21/21/67 17/17/79 13/13/68
f 22/22/66 13/13/68 9/9/80
f 22/22/66 9/9/80 2/2/81
f 22/22/66 2/2/81 1/1/82
f 22/22/66 1/1/82 37/37/83
f 22/22/66 37/37/83 39/39/84
f 22/22/66 39/39/84 29/29/70
f 29/29/70 39/39/84 43/43/85
f 29/29/70 43/43/85 47/47/86
f 29/29/70 47/47/86 45/45/73
s 4
f 19/19/63 14/14/34 20/20/36
f 19/19/63 10/10/87 14/14/34
f 19/19/63 3/3/88 10/10/87
f 19/19/63 4/4/65 3/3/88
f 19/19/63 40/40/89 38/38/64
f 36/36/90 48/48/91 44/44/92
f 36/36/90 40/40/89 19/19/63
f 36/36/90 44/44/92 40/40/89
f 36/36/90 35/35/93 42/42/94
f 36/36/90 46/46/95 48/48/91
f 36/36/90 42/42/94 46/46/95
f 23/23/96 35/35/93 36/36/90
f 23/23/96 34/34/97 35/35/93
f 23/23/96 33/33/98 34/34/97
f 23/23/96 7/7/99 33/33/98
f 23/23/96 8/8/100 7/7/99
f 23/23/96 12/12/101 8/8/100
f 20/20/36 18/18/35 26/26/102
f 20/20/36 26/26/102 28/28/103
f 20/20/36 28/28/103 16/16/104
f 20/20/36 16/16/104 12/12/101
f 20/20/36 12/12/101 23/23/96
