# This file uses centimeters as units for non-parametric coordinates.

mtllib Platform2_low.mtl
g default
v -10.999774 -1.673807 10.999774
v 10.999774 -1.673807 10.999774
v -10.999774 -1.673807 -10.999774
v 10.999774 -1.673807 -10.999774
v -10.085285 1.673807 10.085285
v 10.085285 1.673807 10.085285
v 10.085285 1.673807 -10.085285
v -10.085285 1.673807 -10.085285
v -10.085285 -1.673807 -10.085285
v 10.085285 -1.673807 -10.085285
v 10.085285 -1.673807 10.085285
v -10.085285 -1.673807 10.085285
v -10.085285 1.293242 10.085285
v 10.085285 1.293242 10.085285
v 10.085285 1.293242 -10.085285
v -10.085285 1.293242 -10.085285
v -10.085285 -1.293242 -10.085285
v 10.085285 -1.293242 -10.085285
v 10.085285 -1.293242 10.085285
v -10.085285 -1.293242 10.085285
v -10.999774 1.171715 10.999774
v -10.497683 1.673807 10.497683
v 10.999774 1.171715 10.999774
v 10.497683 1.673807 10.497683
v -10.999774 1.171715 -10.999774
v -10.497683 1.673807 -10.497683
v 10.999774 1.171715 -10.999774
v 10.497683 1.673807 -10.497683
v 10.999774 0.464134 10.999774
v -10.999774 0.464134 10.999774
v -10.999774 0.464134 -10.999774
v 10.999774 0.464134 -10.999774
v 10.999774 -1.010075 10.999774
v 10.999774 -1.010075 -10.999774
v -10.999774 -1.010075 -10.999774
v -10.999774 -1.010075 10.999774
v -10.716290 -1.010075 10.716290
v 10.716290 -1.010075 10.716290
v 10.716290 0.464134 10.716290
v -10.716290 0.464134 10.716290
v -10.716290 0.464134 -10.716290
v 10.716290 0.464134 -10.716290
v 10.716290 -1.010075 -10.716290
v -10.716290 -1.010075 -10.716290
vt 0.825870 0.351436
vt 0.003803 0.647238
vt 0.001565 0.460276
vt 0.852671 0.968882
vt 0.605618 0.434076
vt 0.631267 0.620036
vt 0.031535 0.980201
vt 0.005576 0.004006
vt 0.028760 0.600702
vt 0.682247 0.380424
vt 0.645229 0.803526
vt 0.432113 0.002760
vt 0.605618 0.423177
vt 0.631267 0.608759
vt 0.031535 0.991761
vt 0.664570 0.827769
vt 0.009823 0.577836
vt 0.624857 0.557492
vt 0.705635 0.360476
vt 0.726450 0.989522
vt 0.012475 0.849343
vt 0.672118 0.952421
vt 0.653399 0.748242
vt 0.032527 0.815086
vt 0.632918 0.781803
vt 0.606580 0.589802
vt 0.013107 0.769315
vt 0.693397 0.971374
vt 0.653399 0.727720
vt 0.012475 0.870350
vt 0.746715 0.989522
vt 0.624857 0.537681
vt 0.001565 0.479283
vt 0.806425 0.351436
vt 0.672118 0.932260
vt 0.003803 0.666907
vt 0.012475 0.923646
vt 0.009823 0.487414
vt 0.009823 0.529636
vt 0.012475 0.878867
vt 0.664570 0.878867
vt 0.624857 0.529636
vt 0.624857 0.487414
vt 0.664570 0.923646
vt 0.033162 0.793080
vt 0.005576 0.419623
vt 0.421192 0.419623
vt 0.421192 0.004006
vt 0.863820 0.968882
vt 0.432113 0.355285
vt 0.784638 0.355285
vt 0.784638 0.002760
vt 0.798110 0.989522
vt 0.754936 0.989522
vt 0.806425 0.995971
vt 0.754936 0.360476
vt 0.798110 0.360476
vt 0.631779 0.479283
vt 0.746715 0.360476
vt 0.664570 0.870350
vt 0.013107 0.719165
vt 0.013107 0.675481
vt 0.013107 0.727720
vt 0.650393 0.675481
vt 0.650393 0.719165
vt 0.009823 0.537681
vt 0.657937 0.666907
vt 0.003858 0.932260
vt 0.003858 0.952421
vt 0.631779 0.460276
vt 0.664570 0.849343
vt 0.009823 0.557492
vt 0.705635 0.989522
vt 0.645229 0.815086
vt 0.624857 0.577837
vt 0.693397 0.380424
vt 0.033162 0.781803
vt 0.012475 0.827769
vt 0.653399 0.769315
vt 0.028760 0.589802
vt 0.825870 0.995971
vt 0.726450 0.360476
vt 0.013107 0.748242
vt 0.657937 0.647238
vt 0.031527 0.620036
vt 0.031527 0.608759
vt 0.027799 0.434076
vt 0.027799 0.423177
vt 0.852670 0.377933
vt 0.863820 0.377933
vt 0.644238 0.980201
vt 0.644238 0.991761
vt 0.682247 0.971374
vt 0.606580 0.600702
vt 0.632918 0.793080
vt 0.032527 0.803526
vn 0.000000 1.000000 0.000000
vn 0.000000 1.000000 0.000000
vn 0.000000 1.000000 0.000000
vn 0.000000 1.000000 0.000000
vn 0.000000 -1.000000 0.000000
vn 0.000000 -1.000000 0.000000
vn 0.000000 -1.000000 0.000000
vn 0.000000 -1.000000 0.000000
vn 0.000000 -1.000000 -0.000000
vn 0.000000 -1.000000 -0.000000
vn 0.000000 -1.000000 -0.000000
vn 0.000000 -1.000000 -0.000000
vn 0.000000 -1.000000 0.000000
vn 0.000000 -1.000000 0.000000
vn 0.000000 -1.000000 0.000000
vn 0.000000 -1.000000 0.000000
vn 0.000000 -1.000000 0.000000
vn 0.000000 -1.000000 0.000000
vn 0.000000 -1.000000 0.000000
vn 0.000000 -1.000000 0.000000
vn 0.000000 -1.000000 0.000000
vn 0.000000 -1.000000 0.000000
vn 0.000000 -1.000000 0.000000
vn 0.000000 -1.000000 0.000000
vn 0.000000 0.000000 -1.000000
vn 0.000000 0.000000 -1.000000
vn 0.000000 0.000000 -1.000000
vn 0.000000 0.000000 -1.000000
vn -1.000000 0.000000 0.000000
vn -1.000000 0.000000 0.000000
vn -1.000000 0.000000 0.000000
vn -1.000000 0.000000 0.000000
vn 0.000000 0.000000 1.000000
vn 0.000000 0.000000 1.000000
vn 0.000000 0.000000 1.000000
vn 0.000000 0.000000 1.000000
vn 1.000000 0.000000 0.000000
vn 1.000000 0.000000 0.000000
vn 1.000000 0.000000 0.000000
vn 1.000000 0.000000 0.000000
vn 0.000000 0.000000 1.000000
vn 0.000000 0.000000 1.000000
vn 0.000000 0.000000 1.000000
vn 0.000000 0.000000 1.000000
vn -1.000000 0.000000 0.000000
vn -1.000000 0.000000 0.000000
vn -1.000000 0.000000 0.000000
vn -1.000000 0.000000 0.000000
vn 0.000000 0.000000 -1.000000
vn 0.000000 0.000000 -1.000000
vn 0.000000 0.000000 -1.000000
vn 0.000000 0.000000 -1.000000
vn 1.000000 0.000000 0.000000
vn 1.000000 0.000000 0.000000
vn 1.000000 0.000000 0.000000
vn 1.000000 0.000000 0.000000
vn -0.707108 0.707106 0.000000
vn -0.707108 0.707106 0.000000
vn -0.707108 0.707106 0.000000
vn -0.707108 0.707106 0.000000
vn 0.000000 0.707107 0.707107
vn 0.000000 0.707107 0.707107
vn 0.000000 0.707107 0.707107
vn 0.000000 0.707107 0.707107
vn 0.707108 0.707106 0.000000
vn 0.707108 0.707106 0.000000
vn 0.707108 0.707106 0.000000
vn 0.707108 0.707106 0.000000
vn 0.000000 0.707107 -0.707107
vn 0.000000 0.707107 -0.707107
vn 0.000000 0.707107 -0.707107
vn 0.000000 0.707107 -0.707107
vn 0.000000 0.000000 1.000000
vn 0.000000 0.000000 1.000000
vn 0.000000 0.000000 1.000000
vn 0.000000 0.000000 1.000000
vn 0.000000 0.000000 -1.000000
vn 0.000000 0.000000 -1.000000
vn 0.000000 0.000000 -1.000000
vn 0.000000 0.000000 -1.000000
vn 1.000000 0.000000 0.000000
vn 1.000000 0.000000 0.000000
vn 1.000000 0.000000 0.000000
vn 1.000000 0.000000 0.000000
vn -1.000000 0.000000 0.000000
vn -1.000000 0.000000 0.000000
vn -1.000000 0.000000 0.000000
vn -1.000000 0.000000 0.000000
vn 0.000000 1.000000 0.000000
vn 0.000000 1.000000 0.000000
vn 0.000000 1.000000 0.000000
vn 0.000000 1.000000 0.000000
vn 0.000000 1.000000 -0.000000
vn 0.000000 1.000000 -0.000000
vn 0.000000 1.000000 -0.000000
vn 0.000000 1.000000 -0.000000
vn -0.000000 0.000000 1.000000
vn -0.000000 0.000000 1.000000
vn -0.000000 0.000000 1.000000
vn -0.000000 0.000000 1.000000
vn -1.000000 0.000000 0.000000
vn -1.000000 0.000000 0.000000
vn -1.000000 0.000000 0.000000
vn -1.000000 0.000000 0.000000
vn 0.000000 0.000000 -1.000000
vn 0.000000 0.000000 -1.000000
vn 0.000000 0.000000 -1.000000
vn 0.000000 0.000000 -1.000000
vn 1.000000 0.000000 0.000000
vn 1.000000 0.000000 0.000000
vn 1.000000 0.000000 0.000000
vn 1.000000 0.000000 0.000000
vn 1.000000 0.000000 0.000000
vn 1.000000 0.000000 0.000000
vn 1.000000 0.000000 0.000000
vn 1.000000 0.000000 0.000000
vn 0.000000 0.000000 -1.000000
vn 0.000000 0.000000 -1.000000
vn 0.000000 0.000000 -1.000000
vn 0.000000 0.000000 -1.000000
vn -1.000000 0.000000 0.000000
vn -1.000000 0.000000 0.000000
vn -1.000000 0.000000 0.000000
vn -1.000000 0.000000 0.000000
vn 0.000000 0.000000 1.000000
vn 0.000000 0.000000 1.000000
vn 0.000000 0.000000 1.000000
vn 0.000000 0.000000 1.000000
vn 0.000000 1.000000 -0.000000
vn 0.000000 1.000000 -0.000000
vn 0.000000 1.000000 -0.000000
vn 0.000000 1.000000 -0.000000
vn 0.000000 -1.000000 -0.000000
vn 0.000000 -1.000000 -0.000000
vn 0.000000 -1.000000 -0.000000
vn 0.000000 -1.000000 -0.000000
vn -0.000000 -1.000000 0.000000
vn -0.000000 -1.000000 0.000000
vn -0.000000 -1.000000 0.000000
vn -0.000000 -1.000000 0.000000
vn 0.000000 1.000000 0.000000
vn 0.000000 1.000000 0.000000
vn 0.000000 1.000000 0.000000
vn 0.000000 1.000000 0.000000
vn 0.000000 1.000000 0.000000
vn 0.000000 1.000000 0.000000
vn 0.000000 1.000000 0.000000
vn 0.000000 1.000000 0.000000
vn 0.000000 -1.000000 0.000000
vn 0.000000 -1.000000 0.000000
vn 0.000000 -1.000000 0.000000
vn 0.000000 -1.000000 0.000000
vn 0.000000 1.000000 0.000000
vn 0.000000 1.000000 0.000000
vn 0.000000 1.000000 0.000000
vn 0.000000 1.000000 0.000000
vn 0.000000 -1.000000 0.000000
vn 0.000000 -1.000000 0.000000
vn 0.000000 -1.000000 0.000000
vn 0.000000 -1.000000 0.000000
s off
g Platform_low
usemtl initialShadingGroup
f 13/8/1 14/48/2 15/47/3 16/46/4
f 17/12/5 18/52/6 19/51/7 20/50/8
f 3/81/9 4/1/10 10/89/11 9/4/12
f 4/70/13 2/3/14 11/87/15 10/5/16
f 2/84/17 1/2/18 12/85/19 11/6/20
f 1/69/21 3/22/22 9/91/23 12/7/24
f 5/77/25 6/25/26 14/95/27 13/45/28
f 6/80/29 7/26/30 15/94/31 14/9/32
f 7/76/33 8/28/34 16/93/35 15/10/36
f 8/74/37 5/24/38 13/96/39 16/11/40
f 9/4/41 10/89/42 18/90/43 17/49/44
f 10/5/45 11/87/46 19/88/47 18/13/48
f 11/6/49 12/85/50 20/86/51 19/14/52
f 12/7/53 9/91/54 17/92/55 20/15/56
f 21/21/57 22/78/58 26/16/59 25/71/60
f 22/27/61 21/83/62 23/23/63 24/79/64
f 24/17/65 23/72/66 27/18/67 28/75/68
f 25/20/69 26/73/70 28/19/71 27/82/72
f 37/62/73 38/64/74 39/65/75 40/61/76
f 41/54/77 42/56/78 43/57/79 44/53/80
f 38/38/81 43/43/82 42/42/83 39/39/84
f 44/44/85 37/37/86 40/40/87 41/41/88
s 1
f 22/27/89 24/79/90 6/25/91 5/77/92
f 24/17/90 28/75/93 7/26/94 6/80/91
f 28/19/93 26/73/95 8/28/96 7/76/94
f 26/16/95 22/78/89 5/24/92 8/74/96
s off
f 30/63/97 29/29/98 23/23/99 21/83/100
f 31/60/101 30/30/102 21/21/103 25/71/104
f 25/20/105 27/82/106 32/59/107 31/31/108
f 29/66/109 32/32/110 27/18/111 23/72/112
f 2/3/113 4/70/114 34/58/115 33/33/116
f 35/55/117 34/34/118 4/1/119 3/81/120
f 3/22/121 1/69/122 36/68/123 35/35/124
f 1/2/125 2/84/126 33/67/127 36/36/128
f 36/36/129 33/67/130 38/64/131 37/62/132
f 29/29/133 30/63/134 40/61/135 39/65/136
f 31/31/137 32/59/138 42/56/139 41/54/140
f 34/34/141 35/55/142 44/53/143 43/57/144
f 33/33/145 34/58/146 43/43/147 38/38/148
f 32/32/149 29/66/150 39/39/151 42/42/152
f 35/35/153 36/68/154 37/37/155 44/44/156
f 30/30/157 31/60/158 41/41/159 40/40/160
